# xmcd
#
# Track frame offsets: 
#        150
#        12499
#        27141
#        40559
#        53464
#        65681
#        78786
#        90291
#        101062
#        112122
#        123092
#        134489
#        145522
#        156307
#        166955
#        177628
#        188479
#        199880
#        210293
#        220876
#        232743
#        243556
#        253933
#
# Disc length: 3519 seconds
#
# Revision: 0
# Processed by: cddbd v1.5.2PL0 Copyright (c) Steve Scherf et al.
# Submitted via: ExactAudioCopy v0.95b4
#
DISCID=320dbd17
DTITLE=Leroy Carr and Black Boy Shine - Unissued Test Pressings And Al
DTITLE=ternative Takes 1934 - 1937
DYEAR=1996
DGENRE=Blues
TTITLE0=Sometimes I feel like a motherless child (take 2)
TTITLE1=Evil-hearted woman (take 2)
TTITLE2=Lonesome man blues (take 1)
TTITLE3=Lonesome man blues (take 2)
TTITLE4=The stuff is here (and it`s mellow)(duet w. Bobbie Phillips)
TTITLE5=Suicide blues (take 2)
TTITLE6=Bozetta blues (take 2)
TTITLE7=My good woman blues (take 1)
TTITLE8=My good woman blues (take 2)
TTITLE9=Black shine blues (take 1)
TTITLE10=Black shine blues (take 2)
TTITLE11=Dallas woman blues (take 1)
TTITLE12=Dallas woman blues (take 2)
TTITLE13=Sugarland woman blues (take 1)
TTITLE14=Sugarland woman blues (take 2)
TTITLE15=Lonely house blues
TTITLE16=Bad whiskey blues
TTITLE17=West Columbia woman (take 1)
TTITLE18=West Columbia woman (take 2)
TTITLE19=Brown skin mojo blues (take 1)
TTITLE20=Brown skin mojo blues (take 2)
TTITLE21=Cross-eyed man blues (take 1)
TTITLE22=Cross-eyed man blues (take 2)
EXTD=
EXTT0=
EXTT1=
EXTT2=
EXTT3=
EXTT4=
EXTT5=
EXTT6=
EXTT7=
EXTT8=
EXTT9=
EXTT10=
EXTT11=
EXTT12=
EXTT13=
EXTT14=
EXTT15=
EXTT16=
EXTT17=
EXTT18=
EXTT19=
EXTT20=
EXTT21=
EXTT22=
PLAYORDER=
